<?xml version="1.0" standalone="no"?>
<!DOCTYPE svg PUBLIC "-//W3C//DTD SVG 20010904//EN"
 "http://www.w3.org/TR/2001/REC-SVG-20010904/DTD/svg10.dtd">
<svg version="1.0" xmlns="http://www.w3.org/2000/svg"
 width="512.000000pt" height="512.000000pt" viewBox="0 0 512.000000 512.000000"
 preserveAspectRatio="xMidYMid meet">

<g transform="translate(0.000000,512.000000) scale(0.100000,-0.100000)"
fill="#000000" stroke="none">
<path d="M1633 5095 c-177 -49 -320 -142 -433 -282 -71 -88 -124 -181 -156
-273 -24 -67 -24 -79 -29 -462 -2 -216 -8 -438 -13 -493 -8 -100 -9 -101 -130
-366 -212 -466 -310 -717 -366 -944 -116 -464 -92 -925 65 -1294 99 -232 247
-447 450 -656 86 -88 98 -105 101 -140 2 -30 9 -42 28 -52 13 -6 25 -11 27
-10 1 2 -4 57 -12 122 -7 66 -19 205 -25 309 -14 208 -16 199 49 210 79 13 96
33 139 168 22 68 46 147 53 176 7 28 15 52 18 52 9 0 111 -297 121 -350 4 -25
13 -57 19 -72 12 -33 -17 -121 -148 -442 -45 -110 -79 -201 -77 -204 13 -13
594 -77 605 -66 10 9 54 216 82 388 25 155 36 200 59 241 16 28 33 68 39 90 5
22 20 67 32 100 14 40 24 98 29 173 6 102 13 133 24 121 26 -28 493 -861 572
-1022 33 -66 54 -97 66 -97 9 0 19 4 22 8 6 10 -185 374 -284 542 -97 166
-336 556 -362 593 -21 30 -23 42 -23 177 0 118 -3 151 -17 177 -22 39 -64 73
-100 80 -16 3 -28 9 -28 13 0 5 -12 22 -26 39 -28 34 -53 118 -79 265 l-15 88
46 147 c25 80 49 150 54 155 13 13 58 -92 119 -272 54 -159 112 -299 270 -655
194 -438 424 -1033 486 -1262 18 -66 26 -81 43 -83 12 -2 22 0 22 4 0 45 -194
583 -311 862 -39 92 -73 174 -76 182 -3 8 40 -52 97 -135 135 -198 214 -300
231 -300 7 0 19 11 26 25 18 38 79 323 117 546 l34 199 3 -110 c9 -365 -18
-856 -65 -1177 l-13 -88 23 0 c13 0 25 7 28 17 8 28 34 272 48 453 17 222 17
896 0 1055 -18 167 -61 453 -73 493 -13 39 -33 32 -27 -9 3 -16 1 -29 -4 -29
-11 0 -10 224 1 236 5 5 18 26 29 47 l20 37 95 -168 96 -168 30 -155 c16 -85
40 -232 51 -327 l22 -172 -20 -63 c-23 -69 -52 -272 -52 -357 0 -30 9 -79 19
-109 l19 -54 -43 -166 c-24 -91 -67 -242 -95 -336 -29 -93 -56 -182 -60 -197
-7 -24 -6 -28 10 -28 28 0 10 -54 144 439 73 271 67 270 111 26 13 -77 39
-205 57 -283 l32 -144 30 5 c202 35 483 94 589 124 16 4 14 11 -16 66 -68 121
-197 458 -197 512 0 17 147 210 183 240 7 6 22 22 33 37 l21 27 32 -44 c34
-47 55 -54 105 -35 14 5 27 6 30 2 8 -13 46 -279 71 -490 12 -112 26 -206 29
-209 4 -4 11 -2 17 4 7 7 6 46 -1 124 -13 126 -54 441 -71 533 -10 54 -9 59
10 73 26 18 26 34 0 145 -19 82 -20 91 -5 107 9 10 16 26 16 37 0 24 -48 178
-93 301 l-34 91 28 21 c16 12 58 49 93 82 69 64 88 107 67 148 -24 45 -135 34
-203 -20 -20 -16 -39 -29 -42 -29 -3 0 -6 45 -6 99 0 55 -4 111 -9 124 -22 57
-74 74 -111 37 l-21 -21 -22 24 c-22 23 -23 23 -182 17 -88 -4 -173 -11 -189
-15 -26 -7 -28 -6 -22 11 17 45 47 263 58 422 14 204 8 251 -52 428 -58 170
-65 202 -105 474 -65 448 -94 580 -156 707 -71 149 -256 307 -519 442 -208
107 -335 141 -413 112 -14 -6 -80 -7 -150 -4 l-125 6 -6 42 c-8 52 -54 149
-91 193 -50 60 -96 76 -225 79 -77 2 -132 -2 -167 -12z m647 -1078 c204 -99
309 -167 432 -279 l88 -81 -43 -27 c-43 -27 -107 -93 -107 -111 0 -5 23 9 51
31 27 22 69 45 91 52 l41 12 43 -47 c41 -46 135 -168 167 -217 l16 -26 -53 0
c-61 -1 -199 -59 -237 -100 -29 -31 -19 -41 18 -18 25 16 24 13 -9 -22 -64
-68 -46 -73 42 -13 82 56 147 79 223 79 l63 0 57 -100 c53 -93 57 -104 57
-164 0 -144 -20 -267 -54 -342 -39 -82 -248 -449 -311 -544 -46 -69 -101 -110
-149 -110 -56 0 -330 123 -529 237 -141 82 -222 174 -332 376 -49 91 -66 113
-39 50 9 -21 18 -44 21 -50 4 -9 -7 -13 -34 -13 -36 0 -46 6 -104 68 -36 37
-89 87 -118 112 -47 40 -56 55 -87 140 -52 145 -67 209 -53 226 25 30 94 8
158 -50 19 -17 71 -115 71 -134 0 -3 -26 19 -57 49 -64 61 -115 99 -132 99
-13 0 -10 -19 22 -129 25 -90 33 -81 13 15 -8 38 -13 71 -11 73 6 5 105 -71
105 -80 0 -4 -5 -20 -11 -36 -16 -43 -14 -101 6 -123 10 -11 38 -27 64 -36 25
-10 61 -28 79 -41 50 -37 39 -5 -17 47 -46 43 -49 49 -42 80 l7 35 38 -68 c38
-68 56 -84 36 -33 -14 37 -47 199 -64 317 -14 91 -14 100 5 160 35 109 67 267
94 454 14 99 28 187 30 195 7 22 92 104 151 145 69 49 94 45 304 -58z m1059
-1242 c71 -194 134 -446 143 -575 l3 -45 -105 -26 c-180 -45 -157 -51 -215 53
-27 49 -64 111 -81 138 l-31 47 24 39 c13 22 49 88 79 148 64 125 84 208 85
354 l1 97 28 -60 c16 -33 47 -109 69 -170z m-1684 94 c-5 -27 -3 -45 7 -56 12
-14 10 -14 -19 1 -32 16 -33 19 -33 75 0 32 3 61 6 64 4 3 15 -5 26 -18 16
-20 18 -34 13 -66z m-295 -107 c49 -48 68 -129 51 -208 -28 -126 -131 -151
-339 -82 -145 47 -179 144 -63 179 47 14 134 -8 179 -46 17 -14 33 -25 36 -25
3 0 6 24 6 53 0 94 33 167 76 167 9 0 33 -17 54 -38z m288 -502 c24 -35 24
-35 19 -250 -7 -237 -16 -325 -53 -505 -38 -182 -38 -175 -13 -131 12 23 35
109 54 202 17 90 38 170 45 179 22 27 69 16 118 -28 28 -26 28 -62 3 -222 -20
-126 -24 -164 -21 -205 2 -31 45 208 55 308 7 68 8 72 31 72 38 0 91 -26 109
-53 14 -22 15 -41 6 -164 -12 -155 -14 -249 -5 -240 9 9 33 221 34 295 l0 62
38 -19 c72 -37 77 -54 74 -241 -5 -292 -17 -422 -47 -480 -14 -28 -37 -63 -50
-78 -13 -15 -32 -37 -42 -50 -17 -22 -20 -22 -58 -9 -31 10 -49 27 -78 69 -32
48 -46 59 -100 80 -34 14 -84 31 -111 38 -49 13 -49 13 -72 -15 -17 -22 -24
-25 -28 -15 -51 147 -95 257 -122 306 -19 34 -34 75 -34 93 0 18 16 109 35
202 53 258 94 508 109 673 9 101 18 151 27 157 25 16 53 5 77 -31z m2331 -124
c0 -6 -6 -37 -13 -70 l-12 -59 -36 50 c-38 53 -37 59 11 116 15 18 16 18 33
-3 10 -12 18 -27 17 -34z m104 33 l24 -11 6 -264 c3 -146 3 -376 0 -512 l-6
-247 -96 -92 c-53 -50 -118 -123 -146 -162 -27 -38 -53 -70 -56 -70 -3 -1 -10
14 -15 32 l-10 32 -121 0 c-116 0 -123 -1 -148 -25 -15 -14 -33 -37 -41 -51
-9 -18 -29 -32 -61 -43 -59 -20 -62 -17 -99 99 -26 79 -26 81 -14 215 8 88 20
158 36 203 13 37 30 107 38 155 20 118 53 220 74 231 16 9 59 14 94 12 15 -1
16 -5 4 -38 -7 -21 -21 -81 -30 -133 -25 -137 -33 -173 -41 -192 -4 -10 -3
-18 2 -18 12 0 37 81 58 190 26 127 53 208 75 220 22 12 107 13 114 2 6 -10
-11 -257 -24 -336 -5 -33 -8 -62 -5 -64 10 -10 27 90 40 236 8 88 18 167 21
176 10 26 77 41 124 27 l40 -12 1 -212 c1 -117 5 -225 8 -242 8 -31 11 22 31
440 10 224 29 386 49 424 9 16 36 39 48 41 1 0 13 -5 26 -11z m-203 -4 c0 -3
-7 -17 -16 -30 -14 -22 -24 -25 -76 -25 -33 0 -96 -9 -140 -21 -44 -11 -82
-18 -85 -15 -10 10 9 65 25 72 27 12 292 29 292 19z m-2517 -71 c25 -8 66 -33
90 -54 l44 -39 -13 -88 c-8 -48 -14 -91 -14 -95 0 -9 -223 219 -228 232 -2 5
4 20 14 34 19 30 42 32 107 10z m2127 -19 c0 -41 -17 -47 -26 -9 -4 17 -2 29
7 35 19 12 19 13 19 -26z m-47 -137 c7 -150 8 -154 38 -195 23 -34 27 -43 14
-43 -9 0 -30 -7 -46 -16 -34 -17 -53 -54 -79 -154 -20 -74 -22 -71 -40 75 -14
110 -55 306 -79 386 l-19 59 37 6 c20 3 59 12 86 19 88 23 81 33 88 -137z
m470 90 l36 -53 -11 -113 c-10 -101 -13 -111 -27 -98 -9 8 -25 16 -35 17 -12
3 -36 35 -64 89 l-46 85 49 63 c26 34 51 62 55 62 4 0 24 -24 43 -52z m-2077
-18 l54 0 0 -42 c0 -40 29 -197 45 -248 6 -20 4 -21 -32 -14 -25 4 -47 17 -65
39 -35 41 -78 59 -124 52 -36 -6 -36 -6 -30 25 3 17 6 69 6 116 l0 85 46 -7
c26 -3 71 -6 100 -6z m-544 -191 c-16 -57 -35 -134 -42 -172 -11 -59 -10 -70
5 -93 23 -36 22 -57 -23 -259 -22 -99 -43 -196 -46 -217 -6 -35 -8 -36 -59
-43 -29 -3 -65 -9 -81 -12 l-29 -5 6 133 c11 216 69 569 120 725 22 68 23 69
72 86 l50 17 28 -28 28 -27 -29 -105z m3071 139 c19 -29 -6 -61 -111 -145
l-100 -81 -7 75 c-7 80 -5 88 48 125 65 47 150 60 170 26z m-2907 -191 c3 -10
0 -48 -6 -83 l-12 -65 -70 -45 c-75 -48 -94 -50 -104 -10 -6 24 37 262 57 314
l10 26 59 -59 c33 -33 63 -68 66 -78z m2778 -256 c31 -90 56 -173 56 -185 0
-19 -43 -56 -64 -56 -3 0 -24 37 -47 82 l-41 82 4 111 c5 111 14 153 29 138 4
-4 33 -82 63 -172z m-3144 -623 c0 -51 -5 -100 -10 -108 -7 -10 -10 19 -10 93
0 65 4 107 10 107 6 0 10 -37 10 -92z"/>
<path d="M2112 3515 c-118 -41 -209 -92 -273 -154 -73 -71 -78 -99 -6 -36 105
92 323 181 424 173 58 -5 72 10 28 30 -40 18 -93 14 -173 -13z"/>
<path d="M2587 3283 c-8 -37 -18 -82 -22 -100 -9 -46 72 -278 105 -298 5 -3
-8 36 -29 87 -61 147 -64 163 -46 274 18 114 13 135 -8 37z"/>
<path d="M2799 3312 c-24 -16 -53 -41 -63 -57 -16 -24 -11 -22 40 17 33 25 68
50 79 56 15 8 16 11 4 12 -8 0 -35 -13 -60 -28z"/>
<path d="M2142 3196 c-29 -8 -56 -17 -60 -21 -4 -5 2 -5 13 -1 37 14 150 18
188 8 45 -13 50 2 6 17 -40 14 -79 13 -147 -3z"/>
<path d="M2135 3143 c-99 -13 -244 -77 -272 -120 -9 -13 -13 -26 -10 -29 2 -3
54 11 113 31 132 44 206 52 297 32 37 -8 69 -11 72 -7 2 4 -14 17 -35 29 -46
26 -51 36 -14 27 48 -12 15 13 -38 29 -52 15 -57 15 -113 8z"/>
<path d="M2699 2737 c-32 -27 -64 -75 -56 -84 8 -8 97 80 97 96 0 17 -12 13
-41 -12z"/>
<path d="M2460 2690 c0 -14 13 -17 85 -24 l60 -5 -24 20 c-25 21 -121 28 -121
9z"/>
<path d="M2911 2662 c-7 -12 -38 -27 -92 -42 -46 -13 -104 -39 -131 -58 -48
-33 -52 -33 -121 -27 -54 5 -99 1 -181 -15 -90 -18 -114 -19 -133 -9 -19 10
-26 9 -43 -6 -27 -25 -25 -38 5 -31 19 5 46 -8 123 -59 201 -131 295 -156 400
-104 57 29 82 65 116 165 34 101 70 162 99 166 31 4 28 32 -5 36 -18 2 -30 -3
-37 -16z m-14 -49 c-69 -126 -112 -183 -155 -206 -60 -32 -142 -51 -184 -42
-46 9 -278 106 -278 116 0 5 82 8 183 6 204 -2 179 -9 342 86 76 45 101 56 92
40z"/>
<path d="M1580 1213 c0 -6 12 -25 26 -42 23 -28 29 -30 72 -25 26 3 54 8 62
11 27 9 -22 22 -63 16 -32 -5 -43 -1 -68 23 -16 15 -29 23 -29 17z"/>
<path d="M3525 1144 c28 -9 84 -17 125 -18 56 -1 87 -7 123 -25 47 -23 49 -23
108 -7 32 10 64 14 69 11 6 -3 10 -2 10 4 0 17 -43 23 -74 12 -41 -16 -88 -13
-116 7 -19 12 -47 17 -110 19 -47 1 -107 4 -135 7 l-50 6 50 -16z"/>
<path d="M4238 2797 c-15 -12 -38 -44 -50 -72 -20 -43 -23 -66 -22 -160 1
-109 13 -179 55 -335 30 -113 32 -114 124 -80 41 15 94 39 119 54 113 66 209
190 222 288 17 124 -89 184 -194 109 l-29 -21 -7 51 c-9 66 -40 133 -78 164
-39 33 -102 34 -140 2z m131 -42 c39 -45 65 -131 59 -201 -5 -57 6 -71 22 -30
11 30 91 79 113 70 23 -8 32 -69 17 -117 -16 -54 -49 -105 -97 -148 -48 -44
-157 -109 -182 -109 -59 0 -126 350 -89 472 29 97 102 126 157 63z"/>
</g>
</svg>
