<?xml version="1.0" standalone="no"?>
<!DOCTYPE svg PUBLIC "-//W3C//DTD SVG 20010904//EN"
 "http://www.w3.org/TR/2001/REC-SVG-20010904/DTD/svg10.dtd">
<svg version="1.0" xmlns="http://www.w3.org/2000/svg"
 width="419.000000pt" height="120.000000pt" viewBox="0 0 419.000000 120.000000"
 preserveAspectRatio="xMidYMid meet">

<g transform="translate(0.000000,120.000000) scale(0.100000,-0.100000)"
fill="#000000" stroke="none">
<path d="M1850 991 c-57 -18 -110 -53 -144 -93 -34 -39 -66 -117 -66 -159 0
-10 -39 -74 -87 -143 -74 -105 -92 -125 -114 -125 -15 -1 -46 -8 -70 -16 l-43
-15 -380 151 c-210 84 -391 157 -403 162 -12 5 -27 24 -33 42 -19 57 -95 114
-169 129 -113 21 -241 -90 -241 -209 0 -58 42 -137 91 -171 48 -33 138 -44
199 -24 37 12 46 9 408 -134 203 -80 383 -152 401 -159 22 -9 39 -29 57 -65
31 -62 87 -100 162 -109 94 -11 191 54 222 149 10 32 32 53 147 137 115 84
143 99 184 104 64 8 116 36 165 89 58 62 78 121 72 207 -8 107 -59 180 -162
233 -44 23 -153 33 -196 19z m133 -92 c121 -33 177 -192 100 -287 -16 -19 -41
-45 -56 -55 -32 -25 -121 -34 -170 -18 -63 21 -127 113 -127 181 0 34 22 91
47 121 50 59 126 81 206 58z m-1593 -49 c42 -21 81 -71 44 -55 -70 28 -105 34
-141 22 -71 -23 -104 -113 -66 -178 10 -16 40 -40 68 -53 50 -25 50 -25 17
-25 -83 -2 -152 69 -152 156 0 119 121 189 230 133z m1131 -463 c62 -41 87
-132 54 -196 -8 -16 -28 -40 -45 -55 -43 -35 -131 -37 -180 -3 -53 35 -47 46
14 26 70 -24 119 -11 153 40 46 68 23 145 -55 185 l-47 25 36 1 c21 0 50 -9
70 -23z"/>
<path d="M1847 848 c-40 -23 -77 -86 -77 -129 0 -42 42 -111 80 -131 132 -69
289 83 208 202 -52 76 -140 101 -211 58z"/>
<path d="M2376 857 c-19 -19 -26 -36 -26 -66 0 -51 27 -78 87 -87 42 -6 73
-25 73 -44 0 -14 -42 -40 -65 -40 -11 0 -32 6 -47 14 -24 13 -28 12 -45 -6
-17 -19 -17 -20 1 -33 28 -21 100 -29 140 -15 43 14 66 44 66 86 0 47 -27 73
-89 87 -60 13 -83 36 -62 61 15 18 63 21 90 6 14 -7 23 -5 35 9 15 17 15 19 0
31 -8 8 -42 16 -74 18 -53 4 -61 2 -84 -21z"/>
<path d="M2640 855 c0 -22 4 -25 40 -25 l39 0 3 -127 3 -128 33 -3 32 -3 0
130 0 131 35 0 c31 0 35 3 35 25 l0 25 -110 0 -110 0 0 -25z"/>
<path d="M2960 725 l0 -156 103 3 c101 3 102 3 102 28 0 24 -3 25 -72 28 l-73
3 0 34 0 34 63 3 c55 3 62 5 65 25 3 20 -1 22 -60 25 l-63 3 0 35 0 35 73 3
c69 3 73 4 70 25 -3 21 -8 22 -105 25 l-103 3 0 -156z"/>
<path d="M3322 738 c-29 -79 -52 -149 -52 -155 0 -7 12 -13 26 -13 19 0 28 7
37 30 11 28 15 30 63 30 49 0 53 -2 63 -30 8 -24 16 -30 40 -30 17 0 31 3 31
8 0 4 -25 72 -54 152 -48 129 -56 145 -78 148 -23 3 -28 -6 -76 -140z m108
-30 c8 -27 7 -28 -27 -28 -32 0 -35 2 -29 25 3 13 11 37 17 52 l11 28 10 -25
c6 -14 14 -37 18 -52z"/>
<path d="M3620 725 l0 -155 30 0 29 0 3 88 3 87 28 -53 c36 -68 61 -68 97 0
14 27 28 48 33 48 4 0 7 -38 7 -85 0 -84 0 -85 25 -85 l25 0 0 155 0 155 -28
0 c-25 0 -32 -8 -67 -80 -21 -44 -41 -80 -45 -80 -3 0 -21 36 -40 80 -33 77
-36 80 -67 80 l-33 0 0 -155z"/>
<path d="M3958 873 c6 -2 12 -20 12 -39 0 -44 16 -36 22 11 4 32 2 35 -22 34
-14 0 -19 -3 -12 -6z"/>
<path d="M4021 838 c1 -24 3 -35 6 -26 3 11 10 15 20 11 11 -4 14 -2 9 8 -3 8
-9 22 -12 32 -11 31 -24 18 -23 -25z"/>
<path d="M4066 871 c-8 -13 5 -71 15 -71 5 0 9 18 9 40 0 37 -11 52 -24 31z"/>
</g>
</svg>
